<?xml version="1.0" encoding="utf-8"?>
<!-- Generator: Adobe Illustrator 17.0.0, SVG Export Plug-In . SVG Version: 6.00 Build 0)  -->
<!DOCTYPE svg PUBLIC "-//W3C//DTD SVG 1.1//EN" "http://www.w3.org/Graphics/SVG/1.1/DTD/svg11.dtd">
<svg version="1.1" id="Layer_1" xmlns="http://www.w3.org/2000/svg" xmlns:xlink="http://www.w3.org/1999/xlink" x="0px" y="0px"
	 width="100px" height="32px" viewBox="0 0 100 32" enable-background="new 0 0 100 32" xml:space="preserve">
<g>
	<path fill="#F75454" d="M92.145,22.079c-0.08-0.465-0.972-0.981-0.951-0.911c0.483,1.751-1.418,5.722-2.717,5.722
		c-1.499,0-1.747-2.343-1.747-4.493c0-2.117,0.655-5.435,1.977-5.435c0.888,0-0.087,2.532-1.264,2.853
		c-0.338,0.094-0.14,0.393,0.11,0.496c0.406,0.167,0.824,0.326,1.26,0.43c0.179,0.043,0.358,0.073,0.518,0.027
		c1.044-0.294,2.266-2.371,2.266-3.337c0-1.531-3.301-2.486-4.896-2.308c-0.447,0.05-0.766,0.131-1.022,0.417
		c-2.066,2.321-3.576,11.349-4.826,11.349c-0.96,0-0.126-9.209,1.157-10.223c0.526-0.413,0.282-0.562-0.307-0.901
		c-0.319-0.182-2.266-1.037-2.804-0.572c-0.228,0.198-0.521,1.396-0.748,3.061c-0.601,2.208-2.428,8.636-3.42,8.636
		c-0.165,0-0.255-0.885-0.255-2.231c0-4.241,0.366-8.009,0.775-10.905c4.598,0.307,8.415,0.303,10.378-0.272
		c6.11-1.791,4.487-5.791,3.12-7.002c-0.332-0.296-0.755-0.429-0.972-0.429c0,0.041,0.433,0.757,0.205,1.838
		c-0.275,1.314-1.703,3.041-6.372,3.336c-1.847,0.117-3.869,0.161-5.986,0.15c0.36-2.079,0.676-3.372,0.714-3.592
		c0.025-0.147,0.009-0.274-0.064-0.377c-0.419-0.584-2.131-1.604-3.095-1.604c-0.123,0-0.491,0.344-0.451,0.461
		c0.155,0.437,0.09,0.758,0.09,1.199c0,0.546-0.152,1.946-0.342,3.859c-7.152-0.2-14.937-0.902-20.68-1.515
		c0.226-1.156,0.395-1.864,0.424-2.023c0.027-0.147,0.01-0.274-0.063-0.377c-0.418-0.584-2.13-1.604-3.094-1.604
		c-0.127,0-0.494,0.344-0.454,0.461c0.156,0.437,0.11,0.758,0.089,1.199c-0.027,0.651-0.069,1.316-0.125,1.988
		c-1.796-0.206-3.27-0.384-4.203-0.502c0,0,0.895-1.564,0.621-3.252C44.613,3.34,42.256,2,39.154,2c-0.01,0-0.018,0.001-0.026,0.002
		C39.09,2.002,39.049,2,39.011,2C30.636,2,15.437,9.714,9.675,9.714c-0.805,0-1.45-0.705-1.45-0.705
		C8.152,8.95,7.935,8.94,7.859,8.992c-0.082,0.052-0.524,4.37,2.982,4.37c1.948,0,6.041-1.736,10.674-3.734
		c0.107,1.412-0.096,3.628-0.833,7.705c0,0-3.268,1.237-5.356,1.278c-0.334,0.007-0.637-0.192-0.875-0.494
		c-0.035-0.046-0.468-0.186-0.459,0.197c0.015,0.629,0.438,3.061,2.581,3.02c0.95-0.019,3.855-1.784,3.855-1.784
		c0.019,0.049-0.793,7.625,0.158,9.507c0.394,0.783,2.321,0.955,2.975,0.943c0.227-0.003,0.447-0.255,0.399-0.44
		c-0.647-2.455,0.648-9.303,1.994-11.763c0,0,0.171-0.202,0.166-0.407c-0.009-0.384-0.457-1.602-0.868-1.593
		c-0.079,0.001-0.972,0.439-1.524,0.563c0.119-2.153,1.548-5.41,1.748-7.108c0.048-0.391-0.269-0.767-0.626-1.057
		c4.853-2.063,9.882-3.978,13.39-4.397c2.177-0.26,5.361,0.066,5.657,2.338c0.195,1.499-0.952,2.638-0.952,2.638
		c-5.324-0.615-12.244-1.405-12.745,1.38c-0.361,2.004,2.539,3.633,5.687,3.458c2.455,0.113,6.096-1.207,7.961-3.747
		c1.132,0.153,2.722,0.385,4.63,0.662c-0.784,7.954-3.12,16.364-4.768,16.364c-0.563,0-0.276-8.199,0.869-9.928
		c0.212-0.743-1.395-1.702-2.541-1.702c-0.718-0.147-2.217,3.316-2.668,5.361c-0.092-2.419-0.547-5.06-1.315-5.302
		c-0.542-0.17-1.107-0.302-1.676-0.395c-0.332-0.055-0.652-0.083-0.676,0.085c-0.161,1.049-1.668,2.351-1.977,2.593
		c-0.04,0.004-0.078,0.007-0.117,0.01c-0.06-0.553-0.484-0.817-0.983-1.026c-0.223-0.095-0.282-0.234-0.086-0.404
		c0.207-0.178,0.161-0.356-0.026-0.513c-0.202-0.17-1.951-1.16-2.684-1.16c-1.407,0-3.204,4.688-3.204,7.763
		c0,3.061,0.268,5.045,1.524,6.194c0.834,0.673,1.862,1.007,2.899,1.345c0.33,0.108,0.539,0.032,0.714-0.214
		c1.909-2.705,2.478-7.884,2.096-10.377c-0.015-0.12,0.019-0.266,0.088-0.369c0.67-1.034,1.888-1.8,2.05-2.05
		c0.342,0,0.502,3.615,0.478,4.974c-0.034,2.052-0.487,4.206-1.136,6.187c-0.055,0.166-0.084,0.307-0.035,0.428
		c0.464,1.127,1.831,1.659,3.443,1.413c0.25-0.038,0.331-0.118,0.331-0.33c-0.168-3.371,1.33-10.484,1.999-10.484
		c0.436,0-0.779,5.277,0.069,8.719c0.073,0.326,0.252,0.67,0.443,0.926c0.453,0.602,1.548,1.103,2.607,1.216
		c0.414,0.015,0.511,0.015,0.552-0.358c0.004-0.256,2.006-6.04,2.72-7.78c-0.131,1.337,0.034,4.996,0.419,6.553
		c0.102,0.845,2.295,1.611,3.027,1.611c0.633,0,2.074-4.438,2.275-5.3c0.044,0.001,0,2.077,0.336,3.189
		c0.059,0.197,0.129,0.403,0.242,0.591c0.332,0.543,1.79,1.486,2.587,1.486c0.915,0,1.66-4.589,1.619-4.59
		c0,0,0.032,0.036,0.041,0.001c-0.012,0.461,0.214,2.213,0.708,3.029c0.307,0.505,2.149,1.487,2.815,1.556
		c0.997,0,1.948-2.669,2.036-2.947c0.455,1.39,4.071,4.621,6.397,2.091c0.244-0.265,0.415-0.575,0.525-0.914
		c0.422-1.015,0.883-2.499,1.292-3.938c0.021,1.414,0.087,2.809,0.218,4.136c0.102,0.845,2.296,1.611,3.025,1.611
		c0.685,0,1.99-4.569,2.771-7.554c-0.077,2.085,0.006,4.256,0.38,5.959c0.136,0.626,2.028,1.603,3.109,1.603
		c0.875,0,2.298-7.144,2.387-7.359c0.117,0.106-0.017,4.411,1.98,5.966c0.736,0.576,1.519,1.072,2.475,1.307
		C89.727,30.19,92.651,25.025,92.145,22.079z M24.89,17.703c-0.786,2.337-1.672,5.799-2.148,8.334
		c-0.012,0.003-0.112,0.021-0.123,0.022c-0.041-1.348,0.531-6.496,0.875-7.861C23.494,18.199,24.883,17.423,24.89,17.703z
		 M33.107,10.225c0.383-1.656,7.08-0.776,8.963-0.557c-1.39,1.189-3.418,2.059-5.557,2.059
		C34.428,11.727,32.891,11.16,33.107,10.225z M30.4,26.891c-1.178,0-1.714-4.365,0.013-7.989c0.061,0.676,0.76,1.863,1.52,1.863
		c0.063,0,0.15,0.185,0.169,0.278C32.326,22.245,31.855,26.891,30.4,26.891z M59.515,17.469c-0.033,0.091-0.248,0.191-0.37,0.184
		c-0.346-0.021-0.439,0.137-0.493,0.383c-0.33,1.49-1.46,8.855-2.245,8.855c-0.354,0-0.449-2.042-0.429-2.879
		c0.074-3.071,1.234-7.389,2.624-7.389C59.271,16.623,59.609,17.222,59.515,17.469z M61.334,26.891
		c-0.746,0-0.553-3.996-0.266-5.594c0.13-0.722,0.356-1.545,0.569-2.255c0.202-0.811-0.795-1.025-0.826-1.143
		c-0.062-0.213-0.103-0.555-0.159-0.768c-0.187-0.692-0.631-1.137-1.459-1.384c-0.916-0.274-1.823-0.527-2.788-0.618
		c-0.519-0.049-0.857,0.144-1.103,0.528c-1.165,1.674-2.856,11.233-4.683,11.233c-0.165,0-0.255-0.885-0.255-2.231
		c0-5.771,0.677-10.666,1.217-13.682c6.018,0.869,13.892,1.954,20.693,2.545c-0.205,2.29-0.403,4.994-0.466,7.752
		c-0.407,1.402-0.889,2.905-1.371,3.977c-0.439-1.753-1.367-3.412-1.577-3.793c-0.656-1.196-1.167-2.407-1.109-3.779
		c0.027-0.597,0.085-1.196,0.454-1.737c0.053-0.075,0.019-0.246-0.051-0.321c-0.386-0.432-1.85-0.72-2.385-0.443
		c-0.247,0.129-0.485,0.345-0.602,0.57c-0.39,0.736-0.426,1.532-0.284,2.311c0.198,1.071-0.007,2.097-0.298,3.124
		C64.132,22.764,62.733,26.891,61.334,26.891z M63.961,25.723c0.34-1.622,1.474-3.24,1.823-4.86
		c0.002-0.007,0.021-0.009,0.081-0.038c0.355,0.732,2.604,4.451,1.24,5.856C66.156,27.655,63.886,26.084,63.961,25.723z"/>
	<path fill="#F75454" d="M82.86,9.906c0.113,0.005,0.841,0.027,0.998-0.082c0.953-0.676,2.242-3.838,2.238-4.765
		c0.015-0.215-0.002-0.333-0.205-0.457c-0.775-0.393-1.928-0.811-2.988-0.993c-0.324-0.056-0.463,0.169-0.355,0.455
		c0.464,0.35,0.438,4.147,0,5.44C82.45,9.796,82.547,9.893,82.86,9.906z"/>
</g>
</svg>
